<svg width="336" height="168" xmlns="http://www.w3.org/2000/svg" xmlns:xlink="http://www.w3.org/1999/xlink" overflow="hidden"><g transform="translate(-55 -278)"><path d="M213.375 402.545C212.976 402.545 212.586 402.549 212.204 402.558L212.204 410.272C212.679 410.349 213.18 410.388 213.706 410.388 214.868 410.388 215.751 410.046 216.353 409.362 216.956 408.679 217.257 407.687 217.257 406.389 217.257 405.091 216.951 404.125 216.34 403.493 215.729 402.861 214.741 402.545 213.375 402.545ZM231.607 398.353C231.454 398.8 231.289 399.265 231.11 399.746L229.367 404.415 233.618 404.415 232.052 399.759C231.891 399.269 231.743 398.8 231.607 398.353ZM169.081 394.625C168.351 394.625 167.579 394.66 166.765 394.728L166.765 410.168C167.172 410.246 167.571 410.295 167.961 410.317 168.351 410.338 168.746 410.349 169.145 410.349 170.986 410.349 172.386 409.691 173.345 408.375 174.304 407.06 174.783 405.056 174.783 402.365 174.783 399.742 174.325 397.796 173.409 396.528 172.492 395.259 171.05 394.625 169.081 394.625ZM63.3057 394.612C62.839 394.612 62.3681 394.647 61.8929 394.716L61.8929 402.687C62.3766 402.782 62.856 402.829 63.3312 402.829 64.4427 402.829 65.2891 402.483 65.8704 401.791 66.4516 401.098 66.7422 400.051 66.7422 398.65 66.7422 397.291 66.4665 396.278 65.9149 395.612 65.3634 394.946 64.4937 394.612 63.3057 394.612ZM360.884 394.599C360.689 394.599 360.479 394.608 360.254 394.625 360.029 394.642 359.776 394.668 359.496 394.703L359.496 402.003C359.946 402.029 360.353 402.042 360.718 402.042 361.923 402.042 362.806 401.735 363.366 401.12 363.926 400.505 364.206 399.544 364.206 398.237 364.206 396.973 363.936 396.051 363.397 395.47 362.859 394.89 362.021 394.599 360.884 394.599ZM213.489 394.599C213.328 394.599 213.139 394.606 212.923 394.619 212.707 394.632 212.467 394.655 212.204 394.69L212.204 401.397C212.637 401.406 213.048 401.41 213.438 401.41 214.524 401.41 215.328 401.146 215.85 400.617 216.372 400.088 216.633 399.191 216.633 397.927 216.633 396.741 216.364 395.889 215.825 395.373 215.286 394.857 214.508 394.599 213.489 394.599ZM82.0341 394.599C81.839 394.599 81.629 394.608 81.4041 394.625 81.1793 394.642 80.9268 394.668 80.6468 394.703L80.6468 402.003C81.0965 402.029 81.5038 402.042 81.8686 402.042 83.0736 402.042 83.956 401.735 84.516 401.12 85.076 400.505 85.3561 399.544 85.3561 398.237 85.3561 396.973 85.0867 396.051 84.5479 395.47 84.0091 394.89 83.1712 394.599 82.0341 394.599ZM301.962 394.212C300.171 394.212 298.871 394.877 298.061 396.205 297.25 397.534 296.845 399.544 296.845 402.236 296.845 404.987 297.303 407.092 298.22 408.55 299.136 410.007 300.481 410.736 302.254 410.736 304.003 410.736 305.294 410.074 306.13 408.749 306.966 407.425 307.384 405.344 307.384 402.506 307.384 399.841 306.943 397.792 306.06 396.36 305.178 394.928 303.812 394.212 301.962 394.212ZM335.456 393.426C336.644 393.46 337.772 393.477 338.841 393.477L342.062 393.477C344.123 393.477 346.262 393.46 348.476 393.426L348.565 393.529 347.776 397.824 347.089 397.927 346.274 394.793 341.349 394.793 341.349 401.642 342.036 401.642C342.774 401.642 343.568 401.634 344.416 401.616 344.637 401.608 344.781 401.492 344.849 401.268L345.307 399.501 346.147 399.462C346.122 400.709 346.109 401.642 346.109 402.261 346.109 402.863 346.122 403.783 346.147 405.022L345.307 405.086 344.836 403.267C344.768 403.035 344.637 402.915 344.442 402.906 343.576 402.889 342.77 402.88 342.023 402.88L341.349 402.88 341.349 407.305C341.349 408.251 341.357 409.188 341.374 410.117L346.465 410.117 348.069 406.724 348.845 406.608 348.54 411.432 348.451 411.523C346.338 411.497 344.28 411.484 342.278 411.484L338.905 411.484C337.81 411.484 336.682 411.497 335.519 411.523L335.456 410.878 337.161 410.401C337.373 410.34 337.488 410.207 337.505 410.001 337.513 409.657 337.52 409.272 337.524 408.846 337.528 408.421 337.53 407.95 337.53 407.434L337.53 397.153C337.53 396.723 337.528 396.332 337.524 395.98 337.52 395.627 337.513 395.305 337.505 395.012 337.496 394.789 337.395 394.647 337.2 394.587L335.494 394.083ZM314.115 393.426C315.269 393.46 316.423 393.477 317.577 393.477 319.113 393.477 320.61 393.46 322.07 393.426L322.133 394.083 320.886 394.445C320.716 394.496 320.593 394.561 320.517 394.638 320.441 394.716 320.402 394.832 320.402 394.986 320.402 395.158 320.445 395.384 320.53 395.664 320.615 395.943 320.738 396.315 320.899 396.779L323.712 405.06C323.873 405.551 324.021 406.024 324.157 406.479 324.31 406.024 324.471 405.555 324.641 405.073L327.708 396.792C327.878 396.311 328.012 395.928 328.109 395.644 328.207 395.36 328.255 395.137 328.255 394.974 328.255 394.827 328.215 394.716 328.135 394.638 328.054 394.561 327.933 394.501 327.772 394.458L326.563 394.109 326.525 393.426C327.755 393.46 328.756 393.477 329.528 393.477 330.334 393.477 331.251 393.46 332.277 393.426L332.354 394.083 330.979 394.483C330.665 394.587 330.432 394.746 330.279 394.961 330.126 395.176 329.957 395.511 329.77 395.967L323.521 411.549 322.184 411.678 316.724 396.122C316.512 395.528 316.319 395.126 316.145 394.915 315.971 394.705 315.723 394.548 315.4 394.445L314.166 394.083ZM265.489 393.426C266.897 393.46 267.954 393.477 268.658 393.477 269.625 393.477 270.614 393.46 271.624 393.426L276.066 404.789C276.261 405.28 276.435 405.744 276.587 406.183 276.757 405.744 276.935 405.28 277.122 404.789L281.691 393.426C282.862 393.46 283.919 393.477 284.86 393.477 285.701 393.477 286.689 393.46 287.826 393.426L287.902 394.083 286.159 394.587C285.964 394.647 285.862 394.789 285.853 395.012 285.836 395.58 285.828 396.293 285.828 397.153L285.828 407.434C285.828 408.448 285.836 409.304 285.853 410.001 285.862 410.198 285.976 410.332 286.197 410.401L287.852 410.878 287.902 411.523C286.689 411.497 285.344 411.484 283.868 411.484 282.434 411.484 281.233 411.497 280.266 411.523L280.202 410.878 281.666 410.426C281.869 410.366 281.976 410.211 281.984 409.962 282.009 409.291 282.022 408.448 282.022 407.434L282.022 399.179C282.022 398.731 282.035 397.876 282.06 396.612 281.772 397.351 281.466 398.117 281.144 398.908L276.078 411.484 274.933 411.587 270.096 399.372C269.808 398.675 269.511 397.897 269.205 397.037 269.222 398.258 269.231 399.062 269.231 399.449L269.231 407.434C269.231 408.448 269.239 409.291 269.256 409.962 269.265 410.211 269.375 410.366 269.587 410.426L270.987 410.878 271.025 411.523C270.024 411.497 269.154 411.484 268.416 411.484 267.686 411.484 266.732 411.497 265.552 411.523L265.489 410.878 267.194 410.401C267.415 410.332 267.53 410.198 267.538 410.001 267.555 409.304 267.563 408.448 267.563 407.434L267.563 397.153C267.563 396.293 267.555 395.58 267.538 395.012 267.53 394.789 267.428 394.647 267.233 394.587L265.527 394.083ZM245.133 393.426C246.312 393.46 247.619 393.477 249.053 393.477 250.529 393.477 251.853 393.46 253.024 393.426L253.088 394.083 251.382 394.561C251.178 394.612 251.068 394.741 251.051 394.948 251.043 395.257 251.036 395.591 251.032 395.947 251.028 396.304 251.026 396.689 251.026 397.102L251.026 407.434C251.026 407.95 251.028 408.418 251.032 408.84 251.036 409.261 251.043 409.639 251.051 409.975 251.06 410.198 251.204 410.349 251.484 410.426L253.049 410.878 253.088 411.523C251.908 411.497 250.601 411.484 249.167 411.484 247.683 411.484 246.359 411.497 245.196 411.523L245.133 410.878 246.838 410.401C247.05 410.34 247.165 410.207 247.182 410.001 247.19 409.657 247.197 409.272 247.201 408.846 247.205 408.421 247.207 407.95 247.207 407.434L247.207 397.153C247.207 396.723 247.205 396.332 247.201 395.98 247.197 395.627 247.19 395.305 247.182 395.012 247.173 394.789 247.072 394.647 246.876 394.587L245.171 394.083ZM183.436 393.426C184.616 393.46 185.922 393.477 187.356 393.477 188.833 393.477 190.139 393.46 191.276 393.426L191.34 394.083 189.686 394.561C189.482 394.612 189.372 394.741 189.355 394.948 189.346 395.257 189.34 395.591 189.335 395.947 189.331 396.304 189.329 396.689 189.329 397.102L189.329 404.209C189.329 406.557 189.677 408.18 190.373 409.078 191.069 409.977 192.197 410.426 193.758 410.426 195.294 410.426 196.446 409.951 197.214 409.001 197.982 408.051 198.366 406.509 198.366 404.377L198.366 397.102C198.366 396.689 198.362 396.304 198.353 395.947 198.345 395.591 198.336 395.257 198.328 394.948 198.319 394.75 198.209 394.621 197.997 394.561L196.418 394.109 196.38 393.426C197.509 393.46 198.485 393.477 199.308 393.477 200.071 393.477 201.03 393.46 202.184 393.426L202.248 394.083 200.517 394.587C200.313 394.647 200.207 394.789 200.199 395.012 200.19 395.305 200.184 395.627 200.18 395.98 200.175 396.332 200.173 396.723 200.173 397.153L200.173 403.706C200.173 406.664 199.573 408.786 198.372 410.072 197.172 411.357 195.426 412 193.135 412 190.53 412 188.608 411.387 187.369 410.162 186.13 408.937 185.511 406.974 185.511 404.274L185.511 397.153C185.511 396.723 185.509 396.332 185.504 395.98 185.5 395.627 185.494 395.305 185.485 395.012 185.477 394.789 185.375 394.647 185.18 394.587L183.474 394.083ZM134.805 393.426C135.993 393.46 137.122 393.477 138.191 393.477L141.411 393.477C143.473 393.477 145.611 393.46 147.826 393.426L147.915 393.529 147.126 397.824 146.438 397.927 145.624 394.793 140.698 394.793 140.698 401.642 141.386 401.642C142.124 401.642 142.917 401.634 143.766 401.616 143.986 401.608 144.131 401.492 144.198 401.268L144.657 399.501 145.497 399.462C145.471 400.709 145.458 401.642 145.458 402.261 145.458 402.863 145.471 403.783 145.497 405.022L144.657 405.086 144.186 403.267C144.118 403.035 143.986 402.915 143.791 402.906 142.926 402.889 142.12 402.88 141.373 402.88L140.698 402.88 140.698 407.305C140.698 408.251 140.707 409.188 140.724 410.117L145.815 410.117 147.419 406.724 148.195 406.608 147.889 411.432 147.8 411.523C145.688 411.497 143.63 411.484 141.627 411.484L138.255 411.484C137.16 411.484 136.031 411.497 134.869 411.523L134.805 410.878 136.511 410.401C136.723 410.34 136.838 410.207 136.854 410.001 136.863 409.657 136.869 409.272 136.874 408.846 136.878 408.421 136.88 407.95 136.88 407.434L136.88 397.153C136.88 396.723 136.878 396.332 136.874 395.98 136.869 395.627 136.863 395.305 136.854 395.012 136.846 394.789 136.744 394.647 136.549 394.587L134.844 394.083ZM107.878 393.426C109.287 393.46 110.343 393.477 111.047 393.477 112.015 393.477 113.003 393.46 114.013 393.426L118.455 404.789C118.65 405.28 118.824 405.744 118.977 406.183 119.146 405.744 119.325 405.28 119.511 404.789L124.081 393.426C125.252 393.46 126.308 393.477 127.25 393.477 128.09 393.477 129.078 393.46 130.215 393.426L130.292 394.083 128.548 394.587C128.353 394.647 128.251 394.789 128.243 395.012 128.226 395.58 128.217 396.293 128.217 397.153L128.217 407.434C128.217 408.448 128.226 409.304 128.243 410.001 128.251 410.198 128.366 410.332 128.586 410.401L130.241 410.878 130.292 411.523C129.078 411.497 127.734 411.484 126.257 411.484 124.823 411.484 123.622 411.497 122.655 411.523L122.591 410.878 124.055 410.426C124.259 410.366 124.365 410.211 124.373 409.962 124.399 409.291 124.412 408.448 124.412 407.434L124.412 399.179C124.412 398.731 124.424 397.876 124.45 396.612 124.161 397.351 123.856 398.117 123.533 398.908L118.468 411.484 117.322 411.587 112.486 399.372C112.197 398.675 111.9 397.897 111.595 397.037 111.612 398.258 111.62 399.062 111.62 399.449L111.62 407.434C111.62 408.448 111.629 409.291 111.646 409.962 111.654 410.211 111.764 410.366 111.977 410.426L113.377 410.878 113.415 411.523C112.414 411.497 111.544 411.484 110.806 411.484 110.076 411.484 109.121 411.497 107.942 411.523L107.878 410.878 109.584 410.401C109.804 410.332 109.919 410.198 109.927 410.001 109.944 409.304 109.953 408.448 109.953 407.434L109.953 397.153C109.953 396.293 109.944 395.58 109.927 395.012 109.919 394.789 109.817 394.647 109.622 394.587L107.916 394.083ZM95.4027 393.426C96.5821 393.46 97.8888 393.477 99.3228 393.477 100.799 393.477 102.123 393.46 103.294 393.426L103.358 394.083 101.652 394.561C101.448 394.612 101.338 394.741 101.321 394.948 101.313 395.257 101.306 395.591 101.302 395.947 101.298 396.304 101.296 396.689 101.296 397.102L101.296 407.434C101.296 407.95 101.298 408.418 101.302 408.84 101.306 409.261 101.313 409.639 101.321 409.975 101.33 410.198 101.474 410.349 101.754 410.426L103.319 410.878 103.358 411.523C102.178 411.497 100.871 411.484 99.4373 411.484 97.9524 411.484 96.6288 411.497 95.4663 411.523L95.4027 410.878 97.1082 410.401C97.3203 410.34 97.4349 410.207 97.4518 410.001 97.4604 409.657 97.4667 409.272 97.4709 408.846 97.4752 408.421 97.4773 407.95 97.4773 407.434L97.4773 397.153C97.4773 396.723 97.4752 396.332 97.4709 395.98 97.4667 395.627 97.4604 395.305 97.4518 395.012 97.4434 394.789 97.3415 394.647 97.1463 394.587L95.4408 394.083ZM63.904 393.374C66.1949 393.374 67.9301 393.776 69.1096 394.58 70.289 395.384 70.8787 396.577 70.8787 398.16 70.8787 400.026 70.2657 401.477 69.0396 402.513 67.8134 403.549 66.0846 404.067 63.853 404.067 63.2506 404.067 62.5972 404.02 61.8929 403.925L61.8929 407.434C61.8929 407.95 61.8951 408.412 61.8993 408.82 61.9035 409.229 61.9099 409.596 61.9184 409.923 61.9269 410.121 62.0372 410.259 62.2493 410.336L64.1203 410.878 64.1585 411.523C62.8433 411.497 61.4687 411.484 60.0347 411.484 58.5498 411.484 57.2261 411.497 56.0636 411.523L56 410.878 57.7056 410.401C57.9261 410.332 58.0407 410.198 58.0492 410.001 58.0577 409.657 58.064 409.272 58.0683 408.846 58.0725 408.421 58.0746 407.95 58.0746 407.434L58.0746 397.153C58.0746 396.723 58.0725 396.332 58.0683 395.98 58.064 395.627 58.0577 395.305 58.0492 395.012 58.0407 394.789 57.9389 394.647 57.7437 394.587L56.0382 394.083 56 393.426C57.188 393.46 58.3631 393.477 59.5256 393.477 60.3232 393.477 61.0974 393.46 61.8484 393.426 62.5993 393.391 63.2845 393.374 63.904 393.374ZM361.787 393.361C363.968 393.361 365.604 393.731 366.694 394.47 367.784 395.21 368.329 396.289 368.329 397.708 368.329 398.989 367.996 400.023 367.33 400.81 366.664 401.597 365.686 402.201 364.397 402.623 365.109 403.689 365.659 404.553 366.045 405.215 366.431 405.877 366.819 406.529 367.209 407.169 367.6 407.81 367.954 408.375 368.272 408.866 368.59 409.356 368.889 409.743 369.169 410.026 369.322 410.155 369.469 410.267 369.609 410.362 369.749 410.456 369.895 410.538 370.048 410.607 370.2 410.676 370.364 410.734 370.538 410.781 370.712 410.828 370.905 410.873 371.117 410.917L371.168 411.574C370.336 411.695 369.386 411.755 368.317 411.755 367.468 411.755 366.874 411.699 366.535 411.587 366.195 411.475 365.894 411.316 365.631 411.11 365.241 410.8 364.882 410.396 364.556 409.897 364.229 409.399 363.883 408.835 363.518 408.208 363.154 407.58 362.778 406.914 362.392 406.208 362.006 405.503 361.601 404.807 361.177 404.119 361.049 403.921 360.945 403.758 360.865 403.629 360.784 403.5 360.703 403.403 360.623 403.338 360.542 403.274 360.457 403.227 360.368 403.197 360.279 403.166 360.167 403.147 360.031 403.138L359.496 403.126 359.496 407.434C359.496 407.95 359.499 408.412 359.503 408.82 359.507 409.229 359.513 409.601 359.522 409.936 359.53 410.211 359.628 410.379 359.815 410.439L361.138 410.878 361.177 411.523C360.235 411.497 359.068 411.484 357.676 411.484 356.191 411.484 354.868 411.497 353.705 411.523L353.642 410.878 355.347 410.401C355.559 410.34 355.674 410.207 355.691 410.001 355.699 409.657 355.706 409.272 355.71 408.846 355.714 408.421 355.716 407.95 355.716 407.434L355.716 397.153C355.716 396.723 355.714 396.332 355.71 395.98 355.706 395.627 355.699 395.305 355.691 395.012 355.682 394.789 355.581 394.647 355.385 394.587L353.68 394.083 353.642 393.426C354.83 393.46 356.047 393.477 357.295 393.477 357.558 393.477 357.884 393.471 358.275 393.458 358.665 393.445 359.14 393.43 359.7 393.413 360.209 393.396 360.636 393.383 360.979 393.374 361.323 393.365 361.592 393.361 361.787 393.361ZM82.9378 393.361C85.1185 393.361 86.754 393.731 87.8444 394.47 88.9347 395.21 89.4798 396.289 89.4798 397.708 89.4798 398.989 89.1468 400.023 88.4807 400.81 87.8146 401.597 86.8367 402.201 85.547 402.623 86.2597 403.689 86.8091 404.553 87.1952 405.215 87.5813 405.877 87.9695 406.529 88.3598 407.169 88.7501 407.81 89.1043 408.375 89.4226 408.866 89.7408 409.356 90.0399 409.743 90.3199 410.026 90.4726 410.155 90.619 410.267 90.759 410.362 90.899 410.456 91.0454 410.538 91.1981 410.607 91.3508 410.676 91.5142 410.734 91.6881 410.781 91.862 410.828 92.0551 410.873 92.2672 410.917L92.3181 411.574C91.4865 411.695 90.5362 411.755 89.4671 411.755 88.6186 411.755 88.0247 411.699 87.6852 411.587 87.3458 411.475 87.0446 411.316 86.7816 411.11 86.3913 410.8 86.0328 410.396 85.7061 409.897 85.3794 409.399 85.0336 408.835 84.6688 408.208 84.3039 407.58 83.9284 406.914 83.5424 406.208 83.1563 405.503 82.7511 404.807 82.3269 404.119 82.1996 403.921 82.0957 403.758 82.015 403.629 81.9344 403.5 81.8538 403.403 81.7732 403.338 81.6926 403.274 81.6078 403.227 81.5187 403.197 81.4296 403.166 81.3171 403.147 81.1814 403.138L80.6468 403.126 80.6468 407.434C80.6468 407.95 80.6489 408.412 80.6532 408.82 80.6574 409.229 80.6638 409.601 80.6723 409.936 80.6808 410.211 80.7783 410.379 80.965 410.439L82.2887 410.878 82.3269 411.523C81.385 411.497 80.2183 411.484 78.8267 411.484 77.3418 411.484 76.0182 411.497 74.8557 411.523L74.792 410.878 76.4976 410.401C76.7097 410.34 76.8243 410.207 76.8412 410.001 76.8497 409.657 76.8561 409.272 76.8603 408.846 76.8646 408.421 76.8667 407.95 76.8667 407.434L76.8667 397.153C76.8667 396.723 76.8646 396.332 76.8603 395.98 76.856 395.627 76.8497 395.305 76.8412 395.012 76.8327 394.789 76.7309 394.647 76.5357 394.587L74.8302 394.083 74.792 393.426C75.98 393.46 77.1976 393.477 78.4449 393.477 78.708 393.477 79.0346 393.471 79.425 393.458 79.8153 393.445 80.2904 393.43 80.8504 393.413 81.3596 393.396 81.7859 393.383 82.1296 393.374 82.4732 393.365 82.7426 393.361 82.9378 393.361ZM214.164 393.348C216.311 393.348 217.929 393.699 219.02 394.399 220.11 395.1 220.655 396.109 220.655 397.424 220.655 399.488 219.45 400.916 217.04 401.707 218.44 401.904 219.52 402.399 220.28 403.19 221.039 403.981 221.419 404.97 221.419 406.157 221.419 407.877 220.736 409.207 219.37 410.149 218.003 411.091 216.069 411.561 213.566 411.561 213.074 411.561 212.558 411.549 212.019 411.523 211.48 411.497 210.808 411.484 210.002 411.484 208.763 411.484 207.562 411.497 206.4 411.523L206.336 410.878 208.042 410.401C208.254 410.34 208.369 410.207 208.385 410.001 208.394 409.657 208.4 409.272 208.405 408.846 208.409 408.421 208.411 407.95 208.411 407.434L208.411 397.153C208.411 396.723 208.409 396.332 208.405 395.98 208.4 395.627 208.394 395.305 208.385 395.012 208.377 394.789 208.275 394.647 208.08 394.587L206.374 394.083 206.336 393.426C207.524 393.46 208.746 393.477 210.002 393.477 210.46 393.46 211.177 393.434 212.153 393.4 213.129 393.365 213.799 393.348 214.164 393.348ZM169.527 393.348C172.692 393.348 175.072 394.034 176.667 395.406 178.262 396.777 179.06 398.813 179.06 401.513 179.06 404.695 178.175 407.165 176.406 408.924 174.637 410.682 172.148 411.561 168.941 411.561 168.059 411.561 167.274 411.549 166.586 411.523 165.899 411.497 165.144 411.484 164.321 411.484 163.226 411.484 162.098 411.497 160.935 411.523L160.872 410.878 162.577 410.401C162.798 410.332 162.912 410.198 162.921 410.001 162.929 409.657 162.936 409.272 162.94 408.846 162.944 408.421 162.946 407.95 162.946 407.434L162.946 397.153C162.946 396.723 162.944 396.332 162.94 395.98 162.936 395.627 162.929 395.305 162.921 395.012 162.912 394.789 162.811 394.647 162.615 394.587L160.91 394.083 160.872 393.426C162.06 393.46 163.197 393.477 164.283 393.477 165.199 393.477 166.077 393.456 166.917 393.413 167.757 393.37 168.627 393.348 169.527 393.348ZM233.592 393.142 239.078 408.827C239.29 409.429 239.483 409.835 239.657 410.046 239.831 410.256 240.079 410.409 240.402 410.504L241.649 410.878 241.687 411.523C240.542 411.497 239.388 411.484 238.225 411.484 236.689 411.484 235.192 411.497 233.732 411.523L233.669 410.878 234.929 410.504C235.098 410.452 235.221 410.388 235.298 410.31 235.374 410.233 235.412 410.117 235.412 409.962 235.412 409.79 235.37 409.564 235.285 409.285 235.2 409.005 235.077 408.638 234.916 408.182L234.076 405.757 228.858 405.757 227.954 408.169C227.776 408.642 227.638 409.023 227.54 409.311 227.443 409.599 227.394 409.82 227.394 409.975 227.394 410.121 227.432 410.233 227.508 410.31 227.585 410.388 227.704 410.448 227.865 410.491L229.087 410.852 229.125 411.523C227.895 411.497 226.893 411.484 226.121 411.484 225.315 411.484 224.394 411.497 223.359 411.523L223.296 410.878 224.657 410.465C224.98 410.37 225.217 410.213 225.37 409.994 225.523 409.775 225.693 409.442 225.879 408.995L232.218 393.348ZM381.011 393.129C382.267 393.129 383.696 393.327 385.3 393.722L385.376 393.838 384.6 397.992 383.9 398.108 382.971 394.651C382.428 394.436 381.838 394.329 381.202 394.329 380.302 394.329 379.541 394.595 378.917 395.128 378.293 395.661 377.981 396.349 377.981 397.192 377.981 397.699 378.083 398.134 378.287 398.495 378.491 398.856 378.762 399.179 379.102 399.462 379.441 399.746 379.829 400 380.266 400.223 380.703 400.447 381.155 400.671 381.622 400.894 382.139 401.143 382.661 401.417 383.187 401.713 383.713 402.01 384.184 402.362 384.6 402.771 385.016 403.179 385.353 403.667 385.612 404.235 385.871 404.802 386 405.49 386 406.299 386 408.044 385.351 409.416 384.053 410.413 382.754 411.411 381.04 411.91 378.911 411.91 377.375 411.91 375.86 411.665 374.367 411.174L374.29 411.058 374.965 406.415 375.754 406.286 376.709 410.233C377.32 410.517 377.998 410.659 378.745 410.659 379.823 410.659 380.69 410.381 381.348 409.827 382.006 409.272 382.334 408.53 382.334 407.601 382.334 407.077 382.233 406.632 382.029 406.266 381.825 405.901 381.55 405.574 381.202 405.286 380.854 404.998 380.459 404.742 380.018 404.519 379.577 404.295 379.119 404.072 378.643 403.848 378.126 403.59 377.608 403.319 377.091 403.035 376.573 402.751 376.111 402.408 375.703 402.003 375.296 401.599 374.965 401.115 374.711 400.552 374.456 399.989 374.329 399.308 374.329 398.508 374.329 396.865 374.948 395.558 376.187 394.587 377.426 393.615 379.034 393.129 381.011 393.129ZM302.394 393C305.347 393 307.63 393.81 309.242 395.431 310.854 397.052 311.66 399.265 311.66 402.068 311.66 405.043 310.795 407.436 309.064 409.246 307.333 411.056 304.923 411.961 301.835 411.961 298.882 411.961 296.599 411.125 294.987 409.452 293.375 407.78 292.569 405.516 292.569 402.661 292.569 399.686 293.438 397.332 295.178 395.599 296.917 393.866 299.323 393 302.394 393Z" fill="#1B2A4A" fill-rule="evenodd"/><path d="M255.521 429.154 254.908 429.4 254.809 429.425ZM156.421 424.994 156.485 425.047 156.491 425.057ZM156.808 423.2C157.079 423.164 157.399 423.226 157.741 423.424 173.531 432.589 192.49 438.001 212.718 438.001L212.803 438.001C226.09 437.933 238.795 435.516 250.545 431.146L254.908 429.4 255.558 429.236C257.241 429.099 258.341 430.965 256.575 432.264L256.575 432.26C244.023 440.862 228.5 446 211.775 446L211.523 446 211.508 446 211.111 446C192.698 446 175.711 439.913 162.061 429.645L156.485 425.047 156.013 424.257C155.927 423.731 156.267 423.271 156.808 423.2ZM266.844 422.529 266.993 422.581 266.844 422.529ZM258.797 421C260.97 421 263.07 421.316 265.052 421.904L266.844 422.529 266.96 423.774C266.986 424.211 267 424.664 267 425.12 267 431.423 264.292 437.098 259.973 441.047L259.958 441.062C258.953 441.895 257.996 441.451 258.441 440.344 259.91 436.68 263.201 428.473 261.639 426.486L261.646 426.489C260.088 424.502 251.343 425.545 247.418 426.012 246.227 426.156 246.045 425.12 247.118 424.365 250.427 422.255 254.467 421 258.797 421Z" fill="#D4A843" fill-rule="evenodd"/><path d="M230.219 341.639 230.213 342.573C230.181 349.734 230.14 356.895 230.083 364.056 227.727 364.975 227.727 364.975 225.517 364.992 224.245 364.992 224.245 364.992 222.998 364.992 222.068 364.992 221.163 365 220.258 365 218.807 364.992 218.807 364.992 217.397 364.983 216.418 364.992 215.473 364.992 214.527 365 213.141 364.992 213.141 364.992 211.787 364.992 209.382 364.992 207.768 365.149 205.624 364.056L205.624 341.658 207.844 342.215C211.055 342.748 214.353 343.026 217.716 343.026L218.006 343.026 218.017 343.026 218.201 343.026C221.256 343.026 224.256 342.792 227.18 342.342ZM254.63 328.793 254.635 328.795 254.63 328.793ZM252.553 324.791C249.39 324.791 246.439 325.707 244.021 327.246 243.238 327.796 243.37 328.552 244.24 328.447 246.391 328.192 250.522 327.7 252.934 328.081L254.63 328.793 254.897 330.608C254.652 333.028 253.098 336.896 252.293 338.9 251.968 339.708 252.667 340.032 253.402 339.424L253.413 339.413C256.568 336.533 258.546 332.394 258.546 327.796 258.546 327.464 258.536 327.134 258.517 326.815L258.432 325.907 258.541 325.944 258.432 325.906 258.432 325.907 257.123 325.451C255.675 325.022 254.141 324.791 252.553 324.791ZM236.247 297C243.243 297 250.605 297.737 256.32 302.331 258.913 305.171 260.56 307.274 261 311.189 260.992 312.199 260.992 313.176 260.984 314.153 260.984 315.867 260.984 317.581 260.967 319.302 260.951 320.519 260.943 321.745 260.935 322.97 260.935 326.182 260.918 329.394 260.894 332.598 260.861 335.926 260.845 339.254 260.837 342.573 260.804 349.734 260.764 356.895 260.706 364.056 258.35 364.975 258.35 364.975 256.141 364.992 254.869 364.992 254.869 364.992 253.622 364.992 252.692 364.992 251.787 365 250.882 365 249.431 364.992 249.431 364.992 248.02 364.983 247.042 364.992 246.096 364.992 245.151 365 243.765 364.992 243.765 364.992 242.411 364.992 240.006 364.992 238.392 365.149 236.247 364.056L236.247 340.154 243.666 337.217C246.209 335.983 248.637 334.573 250.93 333.004L250.93 333.007C252.22 332.06 251.416 330.699 250.187 330.799L249.713 330.918 250.16 330.739 249.64 330.936 249.713 330.918 246.525 332.191C244.379 332.988 242.189 333.696 239.96 334.31L236.247 335.161 236.247 330.277C236.247 319.129 236.247 308.064 236.247 297ZM205.624 297C212.619 297 219.981 297.737 225.696 302.331 228.289 305.171 229.936 307.274 230.376 311.189 230.368 312.199 230.368 313.176 230.36 314.153 230.36 315.867 230.36 317.581 230.344 319.302 230.327 320.519 230.319 321.745 230.311 322.97 230.311 326.182 230.295 329.394 230.27 332.598L230.249 336.27 226.148 336.837C223.779 337.06 221.379 337.179 218.952 337.191L218.889 337.191C215.195 337.191 211.559 336.945 208.002 336.47L205.624 335.993 205.624 330.277C205.624 319.129 205.624 308.064 205.624 297ZM175 297C181.995 297 189.357 297.737 195.073 302.331 197.665 305.171 199.312 307.274 199.753 311.189 199.744 312.199 199.744 313.176 199.736 314.153 199.736 315.867 199.736 317.581 199.72 319.302 199.704 320.519 199.695 321.745 199.687 322.97 199.687 326.182 199.671 329.394 199.647 332.598L199.634 334.792 197.592 334.382C190.84 332.56 184.494 329.902 178.726 326.56 178.476 326.415 178.242 326.37 178.044 326.396 177.649 326.448 177.4 326.783 177.463 327.167L177.808 327.744 177.761 327.704 177.812 327.75 177.808 327.744 181.881 331.097C186.867 334.841 192.463 337.823 198.494 339.87L199.603 340.148 199.589 342.573C199.557 349.734 199.516 356.895 199.459 364.056 197.103 364.975 197.103 364.975 194.893 364.992 193.621 364.992 193.621 364.992 192.374 364.992 191.445 364.992 190.54 365 189.635 365 188.183 364.992 188.183 364.992 186.773 364.983 185.795 364.992 184.849 364.992 183.903 365 182.517 364.992 182.517 364.992 181.164 364.992 178.759 364.992 177.144 365.149 175 364.056 175 341.257 175 319.129 175 297Z" fill="#D4A843" fill-rule="evenodd"/><path d="M312.35 341.42C316.28 342.531 319.26 343.839 322.038 346.85 325.278 351.349 325.448 355.685 324.839 361.114 323.629 364.783 321.583 367.374 318.481 369.571 313.876 372.154 309.946 372.648 304.789 371.192 301.013 369.127 298.244 366.766 296.197 362.866 294.752 358.572 294.873 353.867 296.571 349.696 297.066 349.104 297.553 348.528 298.041 347.952 298.625 347.22 299.194 346.504 299.762 345.797 303.587 342.596 307.404 341.338 312.35 341.42ZM296.418 305.088C295.405 305.086 294.254 305.089 292.939 305.093 291.777 305.101 291.777 305.101 290.648 305.118 288.147 305.134 285.719 305.151 283.291 305.167 283.291 311.041 283.291 316.742 283.291 322.443 293.507 322.443 303.423 322.443 313.338 322.443 313.338 320.798 313.338 320.798 312.209 318.445 311.698 317.474 311.194 316.544 310.699 315.607 309.286 312.917 307.792 310.325 306.192 307.75 303.804 305.397 303.506 305.102 296.418 305.088ZM288.673 300.178C292.301 300.193 295.921 300.3 299.559 300.666 300.412 300.757 300.412 300.757 301.24 300.855 303.522 301.053 305.528 301.365 307.786 301.884 311.399 305.446 311.399 305.446 313.795 310.02 314.428 311.212 315.054 312.405 315.687 313.598 316.158 314.478 316.158 314.478 316.621 315.334 316.897 315.869 317.173 316.387 317.449 316.897 318.96 319.324 319.959 320.599 322.769 321.315 323.564 321.405 324.336 321.496 325.099 321.586 325.96 321.693 326.796 321.792 327.633 321.899 328.526 321.997 329.403 322.096 330.272 322.195 332.773 322.499 335.275 322.795 337.784 323.083 338.352 323.149 338.905 323.207 339.457 323.272 339.457 323.552 339.457 323.824 339.457 324.095 336.972 324.375 334.56 324.646 332.148 324.918 334.584 325.74 334.584 325.74 336.192 325.897 336.801 325.921 337.394 325.946 337.995 325.971 339.327 326.037 340.659 326.094 341.991 326.152 344.427 326.25 348.268 325.617 350.014 327.386 348.455 329.302 348.455 329.302 345.742 329.368 344.159 329.459 344.159 329.459 342.608 329.541 341.528 329.607 340.488 329.673 339.449 329.73 338.62 329.771 337.825 329.812 337.021 329.854 338.547 329.936 340.074 330.018 341.601 330.109 342.234 330.142 342.851 330.174 343.469 330.216 345.661 330.331 347.83 330.479 350.014 330.676 351.078 331.573 351.078 331.573 350.932 333.769 350.932 335.283 350.932 335.283 350.932 336.772 350.932 337.891 350.94 338.977 350.94 340.063 350.932 341.79 350.924 343.518 350.932 345.245 350.932 346.372 350.94 347.491 350.94 348.618 350.932 349.441 350.932 349.441 350.932 350.247 350.932 354.22 350.761 358.029 350.014 361.937 347.204 364.676 344.24 364.726 340.521 364.742 339.847 364.734 339.197 364.726 338.547 364.717 337.865 364.726 337.207 364.734 336.55 364.742 335.575 364.734 335.575 364.734 334.625 364.734 332.911 364.783 332.911 364.783 331.336 364.405 329.33 362.817 328.949 362.233 328.51 359.625 328.315 355.364 328.372 351.695 326.358 347.853 323.581 343.304 321.169 340.194 315.906 338.903 309.288 337.998 303.66 338.261 298.089 342.234 293.623 346.52 292.25 351.259 291.901 357.363 291.966 359.782 291.966 359.782 291.544 361.937 287.565 365.474 287.565 365.474 277.738 364.405 277.738 342.588 277.738 321.413 277.738 300.238 281.409 300.238 285.045 300.162 288.673 300.178ZM255 278.027C261.627 277.764 264.672 279.417 269.65 283.588 273.215 287.709 274.855 291.954 274.896 297.425 274.88 298.099 274.872 298.749 274.855 299.408 274.864 301.645 274.855 303.874 274.831 306.112 274.815 307.708 274.807 309.304 274.799 310.892 274.791 315.071 274.774 319.258 274.734 323.437 274.701 327.772 274.677 332.099 274.661 336.427 274.62 345.755 274.563 355.076 274.49 364.405 273.11 364.405 271.77 364.405 270.43 364.405 270.365 355.989 270.3 347.582 270.219 339.166 270.178 334.872 270.137 330.586 270.105 326.292 270.072 322.096 270.04 317.892 269.999 313.689 269.983 312.093 269.967 310.489 269.95 308.893 269.942 306.589 269.926 304.286 269.902 301.991 269.894 301.267 269.885 300.567 269.877 299.868 269.869 296.619 269.853 293.608 268.887 290.474 266.182 285.184 262.106 283.687 256.811 281.893 256.194 281.696 255.601 281.507 255 281.318 255 280.199 255 279.113 255 278.027Z" fill="#1B2A4A" fill-rule="evenodd"/><path d="M109.361 330C110.675 330.009 111.989 330.009 113.303 330.009 116.05 330 118.788 330 121.535 330.009 125.096 330.009 128.656 330.018 132.217 330.009 134.997 330 137.77 330 140.55 330 141.881 330.009 143.212 330.009 144.552 330.009 151.741 329.991 158.862 329.956 166 331 166 334.244 164.16 336.366 162.075 338.663 153.843 346.686 145.34 347.317 134.514 347.422 133.098 347.431 131.674 347.448 130.25 347.475 128.19 347.519 126.121 347.554 124.053 347.589 120.831 347.624 120.831 347.624 117.678 347.659 117.678 354.516 117.678 361.171 117.678 367.826 114.321 368.694 111.514 368.869 108.089 368.904 107.293 368.913 106.521 368.913 105.758 368.922 104.961 368.939 104.19 368.957 103.418 368.974 102.655 368.983 101.909 368.983 101.172 368.992 98.8743 369.018 97.7806 369.071 95.9665 367.58 95.5723 366.791 95.2766 366.199 95.0562 365.698L95 365.534 95 333.775 95.6358 331C98.1368 330 98.1368 330 100.722 330.009 101.791 330.009 102.833 330.009 103.876 330.009 105.699 330.009 107.53 330 109.361 330Z" fill="#1B2A4A" fill-rule="evenodd"/><path d="M137.995 297C138.696 297 139.382 297.008 140.067 297.008 142.393 297 144.694 297.034 147.019 297.118 153.433 298.583 157.75 301.681 161.952 306.912 165.485 312.143 166.497 317.89 165.787 324.204 164.889 325.322 164.889 325.322 162.629 325.228 161.56 325.254 160.524 325.288 159.479 325.322 157.692 325.372 155.905 325.432 154.118 325.474 153.474 325.491 152.846 325.508 152.225 325.525 144.4 325.745 136.583 325.948 128.766 325.999 127.95 325.999 127.158 325.999 126.367 325.999 118.582 326.041 112.976 325.11 106.22 320.819 100.632 316.292 97.5693 310.961 95.616 304.633L95 302.122 95 297.922 111.498 297.234C117.338 297.085 123.18 297.021 129.035 297.017 130.185 297.017 130.185 297.017 131.312 297.017 133.539 297.008 135.767 297 137.995 297Z" fill="#D4A843" fill-rule="evenodd"/><path d="M60.5001 381.5 390.671 381.5" stroke="#D4A843" stroke-width="0.666667" stroke-miterlimit="8" fill="none" fill-rule="evenodd"/></g></svg>