<svg width="336" height="168" xmlns="http://www.w3.org/2000/svg" xmlns:xlink="http://www.w3.org/1999/xlink" overflow="hidden"><g transform="translate(-472 -278)"><path d="M630.375 402.545C629.976 402.545 629.586 402.549 629.204 402.558L629.204 410.272C629.679 410.349 630.18 410.388 630.706 410.388 631.868 410.388 632.751 410.046 633.353 409.362 633.956 408.679 634.257 407.687 634.257 406.389 634.257 405.091 633.951 404.125 633.34 403.493 632.729 402.861 631.741 402.545 630.375 402.545ZM648.607 398.353C648.454 398.8 648.289 399.265 648.11 399.746L646.367 404.415 650.618 404.415 649.052 399.759C648.891 399.269 648.743 398.8 648.607 398.353ZM586.081 394.625C585.351 394.625 584.579 394.66 583.765 394.728L583.765 410.168C584.172 410.246 584.571 410.295 584.961 410.317 585.351 410.338 585.746 410.349 586.145 410.349 587.986 410.349 589.386 409.691 590.345 408.375 591.304 407.06 591.783 405.056 591.783 402.365 591.783 399.742 591.325 397.796 590.409 396.528 589.492 395.259 588.05 394.625 586.081 394.625ZM480.306 394.612C479.839 394.612 479.368 394.647 478.893 394.716L478.893 402.687C479.377 402.782 479.856 402.829 480.331 402.829 481.443 402.829 482.289 402.483 482.87 401.791 483.452 401.098 483.742 400.051 483.742 398.65 483.742 397.291 483.466 396.278 482.915 395.612 482.363 394.946 481.494 394.612 480.306 394.612ZM777.884 394.599C777.689 394.599 777.479 394.608 777.254 394.625 777.029 394.642 776.776 394.668 776.496 394.703L776.496 402.003C776.946 402.029 777.353 402.042 777.718 402.042 778.923 402.042 779.806 401.735 780.366 401.12 780.926 400.505 781.206 399.544 781.206 398.237 781.206 396.973 780.936 396.051 780.397 395.47 779.859 394.89 779.021 394.599 777.884 394.599ZM630.489 394.599C630.328 394.599 630.139 394.606 629.923 394.619 629.707 394.632 629.467 394.655 629.204 394.69L629.204 401.397C629.637 401.406 630.048 401.41 630.438 401.41 631.524 401.41 632.328 401.146 632.85 400.617 633.372 400.088 633.633 399.191 633.633 397.927 633.633 396.741 633.364 395.889 632.825 395.373 632.286 394.857 631.508 394.599 630.489 394.599ZM499.034 394.599C498.839 394.599 498.629 394.608 498.404 394.625 498.179 394.642 497.927 394.668 497.647 394.703L497.647 402.003C498.097 402.029 498.504 402.042 498.869 402.042 500.074 402.042 500.956 401.735 501.516 401.12 502.076 400.505 502.356 399.544 502.356 398.237 502.356 396.973 502.087 396.051 501.548 395.47 501.009 394.89 500.171 394.599 499.034 394.599ZM718.962 394.212C717.171 394.212 715.871 394.877 715.061 396.205 714.25 397.534 713.845 399.544 713.845 402.236 713.845 404.987 714.303 407.092 715.22 408.55 716.136 410.007 717.481 410.736 719.255 410.736 721.003 410.736 722.294 410.074 723.13 408.749 723.966 407.425 724.384 405.344 724.384 402.506 724.384 399.841 723.943 397.792 723.06 396.36 722.178 394.928 720.812 394.212 718.962 394.212ZM752.456 393.426C753.644 393.46 754.772 393.477 755.841 393.477L759.062 393.477C761.123 393.477 763.262 393.46 765.476 393.426L765.565 393.529 764.776 397.824 764.089 397.927 763.274 394.793 758.349 394.793 758.349 401.642 759.036 401.642C759.774 401.642 760.568 401.634 761.416 401.616 761.637 401.608 761.781 401.492 761.849 401.268L762.307 399.501 763.147 399.462C763.122 400.709 763.109 401.642 763.109 402.261 763.109 402.863 763.122 403.783 763.147 405.022L762.307 405.086 761.836 403.267C761.768 403.035 761.637 402.915 761.442 402.906 760.576 402.889 759.77 402.88 759.023 402.88L758.349 402.88 758.349 407.305C758.349 408.251 758.357 409.188 758.374 410.117L763.465 410.117 765.069 406.724 765.845 406.608 765.54 411.432 765.451 411.523C763.338 411.497 761.28 411.484 759.278 411.484L755.905 411.484C754.81 411.484 753.682 411.497 752.519 411.523L752.456 410.878 754.161 410.401C754.373 410.34 754.488 410.207 754.505 410.001 754.513 409.657 754.52 409.272 754.524 408.846 754.528 408.421 754.53 407.95 754.53 407.434L754.53 397.153C754.53 396.723 754.528 396.332 754.524 395.98 754.52 395.627 754.513 395.305 754.505 395.012 754.496 394.789 754.395 394.647 754.2 394.587L752.494 394.083ZM731.115 393.426C732.269 393.46 733.423 393.477 734.577 393.477 736.113 393.477 737.61 393.46 739.07 393.426L739.133 394.083 737.886 394.445C737.716 394.496 737.593 394.561 737.517 394.638 737.441 394.716 737.402 394.832 737.402 394.986 737.402 395.158 737.445 395.384 737.53 395.664 737.615 395.943 737.738 396.315 737.899 396.779L740.712 405.06C740.873 405.551 741.021 406.024 741.157 406.479 741.31 406.024 741.471 405.555 741.641 405.073L744.708 396.792C744.878 396.311 745.012 395.928 745.109 395.644 745.207 395.36 745.255 395.137 745.255 394.974 745.255 394.827 745.215 394.716 745.135 394.638 745.054 394.561 744.933 394.501 744.772 394.458L743.563 394.109 743.525 393.426C744.755 393.46 745.756 393.477 746.528 393.477 747.334 393.477 748.251 393.46 749.277 393.426L749.354 394.083 747.979 394.483C747.665 394.587 747.432 394.746 747.279 394.961 747.126 395.176 746.957 395.511 746.77 395.967L740.521 411.549 739.184 411.678 733.724 396.122C733.512 395.528 733.319 395.126 733.145 394.915 732.971 394.705 732.723 394.548 732.4 394.445L731.166 394.083ZM682.489 393.426C683.897 393.46 684.954 393.477 685.658 393.477 686.625 393.477 687.614 393.46 688.624 393.426L693.066 404.789C693.261 405.28 693.435 405.744 693.587 406.183 693.757 405.744 693.935 405.28 694.122 404.789L698.691 393.426C699.862 393.46 700.919 393.477 701.86 393.477 702.701 393.477 703.689 393.46 704.826 393.426L704.902 394.083 703.159 394.587C702.964 394.647 702.862 394.789 702.853 395.012 702.836 395.58 702.828 396.293 702.828 397.153L702.828 407.434C702.828 408.448 702.836 409.304 702.853 410.001 702.862 410.198 702.976 410.332 703.197 410.401L704.852 410.878 704.902 411.523C703.689 411.497 702.344 411.484 700.868 411.484 699.434 411.484 698.233 411.497 697.266 411.523L697.202 410.878 698.666 410.426C698.869 410.366 698.976 410.211 698.984 409.962 699.009 409.291 699.022 408.448 699.022 407.434L699.022 399.179C699.022 398.731 699.035 397.876 699.06 396.612 698.772 397.351 698.466 398.117 698.144 398.908L693.078 411.484 691.933 411.587 687.096 399.372C686.808 398.675 686.511 397.897 686.205 397.037 686.222 398.258 686.231 399.062 686.231 399.449L686.231 407.434C686.231 408.448 686.239 409.291 686.256 409.962 686.265 410.211 686.375 410.366 686.587 410.426L687.987 410.878 688.025 411.523C687.024 411.497 686.154 411.484 685.416 411.484 684.686 411.484 683.732 411.497 682.552 411.523L682.489 410.878 684.194 410.401C684.415 410.332 684.53 410.198 684.538 410.001 684.555 409.304 684.563 408.448 684.563 407.434L684.563 397.153C684.563 396.293 684.555 395.58 684.538 395.012 684.53 394.789 684.428 394.647 684.233 394.587L682.527 394.083ZM662.133 393.426C663.312 393.46 664.619 393.477 666.053 393.477 667.529 393.477 668.853 393.46 670.024 393.426L670.088 394.083 668.382 394.561C668.178 394.612 668.068 394.741 668.051 394.948 668.043 395.257 668.036 395.591 668.032 395.947 668.028 396.304 668.026 396.689 668.026 397.102L668.026 407.434C668.026 407.95 668.028 408.418 668.032 408.84 668.036 409.261 668.043 409.639 668.051 409.975 668.06 410.198 668.204 410.349 668.484 410.426L670.049 410.878 670.088 411.523C668.908 411.497 667.601 411.484 666.167 411.484 664.683 411.484 663.359 411.497 662.196 411.523L662.133 410.878 663.838 410.401C664.05 410.34 664.165 410.207 664.182 410.001 664.19 409.657 664.197 409.272 664.201 408.846 664.205 408.421 664.207 407.95 664.207 407.434L664.207 397.153C664.207 396.723 664.205 396.332 664.201 395.98 664.197 395.627 664.19 395.305 664.182 395.012 664.173 394.789 664.072 394.647 663.876 394.587L662.171 394.083ZM600.436 393.426C601.616 393.46 602.922 393.477 604.356 393.477 605.833 393.477 607.14 393.46 608.276 393.426L608.34 394.083 606.686 394.561C606.482 394.612 606.372 394.741 606.355 394.948 606.346 395.257 606.34 395.591 606.336 395.947 606.331 396.304 606.329 396.689 606.329 397.102L606.329 404.209C606.329 406.557 606.677 408.18 607.373 409.078 608.069 409.977 609.197 410.426 610.758 410.426 612.294 410.426 613.446 409.951 614.214 409.001 614.982 408.051 615.366 406.509 615.366 404.377L615.366 397.102C615.366 396.689 615.362 396.304 615.353 395.947 615.345 395.591 615.336 395.257 615.328 394.948 615.319 394.75 615.209 394.621 614.997 394.561L613.418 394.109 613.38 393.426C614.509 393.46 615.485 393.477 616.308 393.477 617.071 393.477 618.03 393.46 619.184 393.426L619.248 394.083 617.517 394.587C617.313 394.647 617.207 394.789 617.199 395.012 617.19 395.305 617.184 395.627 617.18 395.98 617.175 396.332 617.173 396.723 617.173 397.153L617.173 403.706C617.173 406.664 616.573 408.786 615.372 410.072 614.172 411.357 612.426 412 610.135 412 607.53 412 605.608 411.387 604.369 410.162 603.13 408.937 602.511 406.974 602.511 404.274L602.511 397.153C602.511 396.723 602.509 396.332 602.504 395.98 602.5 395.627 602.494 395.305 602.485 395.012 602.477 394.789 602.375 394.647 602.18 394.587L600.474 394.083ZM551.805 393.426C552.993 393.46 554.122 393.477 555.191 393.477L558.411 393.477C560.473 393.477 562.611 393.46 564.826 393.426L564.915 393.529 564.126 397.824 563.438 397.927 562.624 394.793 557.698 394.793 557.698 401.642 558.386 401.642C559.124 401.642 559.917 401.634 560.766 401.616 560.986 401.608 561.131 401.492 561.198 401.268L561.657 399.501 562.497 399.462C562.471 400.709 562.458 401.642 562.458 402.261 562.458 402.863 562.471 403.783 562.497 405.022L561.657 405.086 561.186 403.267C561.118 403.035 560.986 402.915 560.791 402.906 559.926 402.889 559.12 402.88 558.373 402.88L557.698 402.88 557.698 407.305C557.698 408.251 557.707 409.188 557.724 410.117L562.815 410.117 564.419 406.724 565.195 406.608 564.889 411.432 564.8 411.523C562.688 411.497 560.63 411.484 558.627 411.484L555.255 411.484C554.16 411.484 553.031 411.497 551.869 411.523L551.805 410.878 553.511 410.401C553.723 410.34 553.838 410.207 553.854 410.001 553.863 409.657 553.869 409.272 553.874 408.846 553.878 408.421 553.88 407.95 553.88 407.434L553.88 397.153C553.88 396.723 553.878 396.332 553.874 395.98 553.869 395.627 553.863 395.305 553.854 395.012 553.846 394.789 553.744 394.647 553.549 394.587L551.844 394.083ZM524.878 393.426C526.287 393.46 527.343 393.477 528.047 393.477 529.015 393.477 530.003 393.46 531.013 393.426L535.455 404.789C535.65 405.28 535.824 405.744 535.977 406.183 536.146 405.744 536.325 405.28 536.511 404.789L541.081 393.426C542.252 393.46 543.308 393.477 544.25 393.477 545.09 393.477 546.078 393.46 547.215 393.426L547.292 394.083 545.548 394.587C545.353 394.647 545.251 394.789 545.243 395.012 545.226 395.58 545.217 396.293 545.217 397.153L545.217 407.434C545.217 408.448 545.226 409.304 545.243 410.001 545.251 410.198 545.366 410.332 545.586 410.401L547.241 410.878 547.292 411.523C546.078 411.497 544.734 411.484 543.257 411.484 541.823 411.484 540.622 411.497 539.655 411.523L539.591 410.878 541.055 410.426C541.259 410.366 541.365 410.211 541.373 409.962 541.399 409.291 541.412 408.448 541.412 407.434L541.412 399.179C541.412 398.731 541.424 397.876 541.45 396.612 541.161 397.351 540.856 398.117 540.533 398.908L535.468 411.484 534.322 411.587 529.486 399.372C529.197 398.675 528.9 397.897 528.595 397.037 528.612 398.258 528.62 399.062 528.62 399.449L528.62 407.434C528.62 408.448 528.629 409.291 528.646 409.962 528.654 410.211 528.764 410.366 528.977 410.426L530.377 410.878 530.415 411.523C529.414 411.497 528.544 411.484 527.806 411.484 527.076 411.484 526.121 411.497 524.942 411.523L524.878 410.878 526.584 410.401C526.804 410.332 526.919 410.198 526.927 410.001 526.944 409.304 526.953 408.448 526.953 407.434L526.953 397.153C526.953 396.293 526.944 395.58 526.927 395.012 526.919 394.789 526.817 394.647 526.622 394.587L524.916 394.083ZM512.403 393.426C513.582 393.46 514.889 393.477 516.323 393.477 517.799 393.477 519.123 393.46 520.294 393.426L520.358 394.083 518.652 394.561C518.448 394.612 518.338 394.741 518.321 394.948 518.313 395.257 518.306 395.591 518.302 395.947 518.298 396.304 518.296 396.689 518.296 397.102L518.296 407.434C518.296 407.95 518.298 408.418 518.302 408.84 518.306 409.261 518.313 409.639 518.321 409.975 518.33 410.198 518.474 410.349 518.754 410.426L520.319 410.878 520.358 411.523C519.178 411.497 517.871 411.484 516.437 411.484 514.952 411.484 513.629 411.497 512.466 411.523L512.403 410.878 514.108 410.401C514.32 410.34 514.435 410.207 514.452 410.001 514.46 409.657 514.467 409.272 514.471 408.846 514.475 408.421 514.477 407.95 514.477 407.434L514.477 397.153C514.477 396.723 514.475 396.332 514.471 395.98 514.467 395.627 514.46 395.305 514.452 395.012 514.443 394.789 514.342 394.647 514.146 394.587L512.441 394.083ZM480.904 393.374C483.195 393.374 484.93 393.776 486.11 394.58 487.289 395.384 487.879 396.577 487.879 398.16 487.879 400.026 487.266 401.477 486.04 402.513 484.813 403.549 483.085 404.067 480.853 404.067 480.251 404.067 479.597 404.02 478.893 403.925L478.893 407.434C478.893 407.95 478.895 408.412 478.899 408.82 478.904 409.229 478.91 409.596 478.918 409.923 478.927 410.121 479.037 410.259 479.249 410.336L481.12 410.878 481.158 411.523C479.843 411.497 478.469 411.484 477.035 411.484 475.55 411.484 474.226 411.497 473.064 411.523L473 410.878 474.706 410.401C474.926 410.332 475.041 410.198 475.049 410.001 475.058 409.657 475.064 409.272 475.068 408.846 475.073 408.421 475.075 407.95 475.075 407.434L475.075 397.153C475.075 396.723 475.073 396.332 475.068 395.98 475.064 395.627 475.058 395.305 475.049 395.012 475.041 394.789 474.939 394.647 474.744 394.587L473.038 394.083 473 393.426C474.188 393.46 475.363 393.477 476.526 393.477 477.323 393.477 478.097 393.46 478.848 393.426 479.599 393.391 480.285 393.374 480.904 393.374ZM778.787 393.361C780.968 393.361 782.604 393.731 783.694 394.47 784.784 395.21 785.329 396.289 785.329 397.708 785.329 398.989 784.996 400.023 784.33 400.81 783.664 401.597 782.686 402.201 781.397 402.623 782.109 403.689 782.659 404.553 783.045 405.215 783.431 405.877 783.819 406.529 784.209 407.169 784.6 407.81 784.954 408.375 785.272 408.866 785.59 409.356 785.889 409.743 786.169 410.026 786.322 410.155 786.469 410.267 786.609 410.362 786.749 410.456 786.895 410.538 787.048 410.607 787.2 410.676 787.364 410.734 787.538 410.781 787.712 410.828 787.905 410.873 788.117 410.917L788.168 411.574C787.336 411.695 786.386 411.755 785.317 411.755 784.468 411.755 783.874 411.699 783.535 411.587 783.195 411.475 782.894 411.316 782.631 411.11 782.241 410.8 781.882 410.396 781.556 409.897 781.229 409.399 780.883 408.835 780.518 408.208 780.154 407.58 779.778 406.914 779.392 406.208 779.006 405.503 778.601 404.807 778.177 404.119 778.049 403.921 777.945 403.758 777.865 403.629 777.784 403.5 777.703 403.403 777.623 403.338 777.542 403.274 777.457 403.227 777.368 403.197 777.279 403.166 777.167 403.147 777.031 403.138L776.496 403.126 776.496 407.434C776.496 407.95 776.499 408.412 776.503 408.82 776.507 409.229 776.513 409.601 776.522 409.936 776.53 410.211 776.628 410.379 776.815 410.439L778.138 410.878 778.177 411.523C777.235 411.497 776.068 411.484 774.676 411.484 773.192 411.484 771.868 411.497 770.705 411.523L770.642 410.878 772.347 410.401C772.559 410.34 772.674 410.207 772.691 410.001 772.699 409.657 772.706 409.272 772.71 408.846 772.714 408.421 772.716 407.95 772.716 407.434L772.716 397.153C772.716 396.723 772.714 396.332 772.71 395.98 772.706 395.627 772.699 395.305 772.691 395.012 772.682 394.789 772.581 394.647 772.385 394.587L770.68 394.083 770.642 393.426C771.83 393.46 773.047 393.477 774.295 393.477 774.558 393.477 774.884 393.471 775.275 393.458 775.665 393.445 776.14 393.43 776.7 393.413 777.209 393.396 777.635 393.383 777.979 393.374 778.323 393.365 778.592 393.361 778.787 393.361ZM499.938 393.361C502.118 393.361 503.754 393.731 504.844 394.47 505.935 395.21 506.48 396.289 506.48 397.708 506.48 398.989 506.147 400.023 505.481 400.81 504.815 401.597 503.837 402.201 502.547 402.623 503.26 403.689 503.809 404.553 504.195 405.215 504.581 405.877 504.969 406.529 505.36 407.169 505.75 407.81 506.104 408.375 506.423 408.866 506.741 409.356 507.04 409.743 507.32 410.026 507.473 410.155 507.619 410.267 507.759 410.362 507.899 410.456 508.045 410.538 508.198 410.607 508.351 410.676 508.514 410.734 508.688 410.781 508.862 410.828 509.055 410.873 509.267 410.917L509.318 411.574C508.487 411.695 507.536 411.755 506.467 411.755 505.619 411.755 505.025 411.699 504.685 411.587 504.346 411.475 504.045 411.316 503.782 411.11 503.391 410.8 503.033 410.396 502.706 409.897 502.379 409.399 502.034 408.835 501.669 408.208 501.304 407.58 500.928 406.914 500.542 406.208 500.156 405.503 499.751 404.807 499.327 404.119 499.2 403.921 499.096 403.758 499.015 403.629 498.934 403.5 498.854 403.403 498.773 403.338 498.693 403.274 498.608 403.227 498.519 403.197 498.43 403.166 498.317 403.147 498.181 403.138L497.647 403.126 497.647 407.434C497.647 407.95 497.649 408.412 497.653 408.82 497.657 409.229 497.664 409.601 497.672 409.936 497.681 410.211 497.778 410.379 497.965 410.439L499.289 410.878 499.327 411.523C498.385 411.497 497.218 411.484 495.827 411.484 494.342 411.484 493.018 411.497 491.856 411.523L491.792 410.878 493.498 410.401C493.71 410.34 493.824 410.207 493.841 410.001 493.85 409.657 493.856 409.272 493.86 408.846 493.865 408.421 493.867 407.95 493.867 407.434L493.867 397.153C493.867 396.723 493.865 396.332 493.86 395.98 493.856 395.627 493.85 395.305 493.841 395.012 493.833 394.789 493.731 394.647 493.536 394.587L491.83 394.083 491.792 393.426C492.98 393.46 494.198 393.477 495.445 393.477 495.708 393.477 496.035 393.471 496.425 393.458 496.815 393.445 497.29 393.43 497.85 393.413 498.36 393.396 498.786 393.383 499.13 393.374 499.473 393.365 499.743 393.361 499.938 393.361ZM631.164 393.348C633.311 393.348 634.929 393.699 636.02 394.399 637.11 395.1 637.655 396.109 637.655 397.424 637.655 399.488 636.45 400.916 634.04 401.707 635.44 401.904 636.52 402.399 637.28 403.19 638.039 403.981 638.419 404.97 638.419 406.157 638.419 407.877 637.736 409.207 636.37 410.149 635.003 411.091 633.069 411.561 630.566 411.561 630.073 411.561 629.558 411.549 629.019 411.523 628.48 411.497 627.808 411.484 627.002 411.484 625.763 411.484 624.562 411.497 623.4 411.523L623.336 410.878 625.042 410.401C625.254 410.34 625.369 410.207 625.385 410.001 625.394 409.657 625.4 409.272 625.405 408.846 625.409 408.421 625.411 407.95 625.411 407.434L625.411 397.153C625.411 396.723 625.409 396.332 625.405 395.98 625.4 395.627 625.394 395.305 625.385 395.012 625.377 394.789 625.275 394.647 625.08 394.587L623.375 394.083 623.336 393.426C624.524 393.46 625.746 393.477 627.002 393.477 627.46 393.46 628.177 393.434 629.153 393.4 630.129 393.365 630.799 393.348 631.164 393.348ZM586.527 393.348C589.692 393.348 592.072 394.034 593.667 395.406 595.262 396.777 596.06 398.813 596.06 401.513 596.06 404.695 595.175 407.165 593.406 408.924 591.637 410.682 589.148 411.561 585.941 411.561 585.059 411.561 584.274 411.549 583.586 411.523 582.899 411.497 582.144 411.484 581.321 411.484 580.226 411.484 579.098 411.497 577.935 411.523L577.872 410.878 579.577 410.401C579.798 410.332 579.912 410.198 579.921 410.001 579.929 409.657 579.936 409.272 579.94 408.846 579.944 408.421 579.946 407.95 579.946 407.434L579.946 397.153C579.946 396.723 579.944 396.332 579.94 395.98 579.936 395.627 579.929 395.305 579.921 395.012 579.912 394.789 579.811 394.647 579.615 394.587L577.91 394.083 577.872 393.426C579.06 393.46 580.197 393.477 581.283 393.477 582.199 393.477 583.077 393.456 583.917 393.413 584.757 393.37 585.627 393.348 586.527 393.348ZM650.592 393.142 656.078 408.827C656.29 409.429 656.483 409.835 656.657 410.046 656.831 410.256 657.079 410.409 657.402 410.504L658.649 410.878 658.687 411.523C657.542 411.497 656.388 411.484 655.225 411.484 653.689 411.484 652.192 411.497 650.732 411.523L650.669 410.878 651.929 410.504C652.098 410.452 652.221 410.388 652.298 410.31 652.374 410.233 652.412 410.117 652.412 409.962 652.412 409.79 652.37 409.564 652.285 409.285 652.2 409.005 652.077 408.638 651.916 408.182L651.076 405.757 645.858 405.757 644.954 408.169C644.776 408.642 644.638 409.023 644.54 409.311 644.443 409.599 644.394 409.82 644.394 409.975 644.394 410.121 644.432 410.233 644.508 410.31 644.585 410.388 644.704 410.448 644.865 410.491L646.087 410.852 646.125 411.523C644.895 411.497 643.893 411.484 643.121 411.484 642.315 411.484 641.394 411.497 640.359 411.523L640.296 410.878 641.657 410.465C641.98 410.37 642.217 410.213 642.37 409.994 642.523 409.775 642.693 409.442 642.879 408.995L649.218 393.348ZM798.011 393.129C799.266 393.129 800.696 393.327 802.3 393.722L802.376 393.838 801.6 397.992 800.9 398.108 799.971 394.651C799.428 394.436 798.838 394.329 798.202 394.329 797.302 394.329 796.541 394.595 795.917 395.128 795.293 395.661 794.981 396.349 794.981 397.192 794.981 397.699 795.083 398.134 795.287 398.495 795.491 398.856 795.762 399.179 796.102 399.462 796.441 399.746 796.829 400 797.266 400.223 797.703 400.447 798.155 400.671 798.622 400.894 799.139 401.143 799.661 401.417 800.187 401.713 800.713 402.01 801.184 402.362 801.6 402.771 802.016 403.179 802.353 403.667 802.612 404.235 802.871 404.802 803 405.49 803 406.299 803 408.044 802.351 409.416 801.053 410.413 799.754 411.411 798.04 411.91 795.911 411.91 794.375 411.91 792.86 411.665 791.367 411.174L791.29 411.058 791.965 406.415 792.754 406.286 793.709 410.233C794.32 410.517 794.998 410.659 795.745 410.659 796.823 410.659 797.69 410.381 798.348 409.827 799.006 409.272 799.334 408.53 799.334 407.601 799.334 407.077 799.233 406.632 799.029 406.266 798.825 405.901 798.55 405.574 798.202 405.286 797.854 404.998 797.459 404.742 797.018 404.519 796.577 404.295 796.119 404.072 795.643 403.848 795.126 403.59 794.608 403.319 794.091 403.035 793.573 402.751 793.11 402.408 792.703 402.003 792.296 401.599 791.965 401.115 791.711 400.552 791.456 399.989 791.329 399.308 791.329 398.508 791.329 396.865 791.948 395.558 793.187 394.587 794.426 393.615 796.034 393.129 798.011 393.129ZM719.394 393C722.347 393 724.63 393.81 726.242 395.431 727.854 397.052 728.66 399.265 728.66 402.068 728.66 405.043 727.795 407.436 726.064 409.246 724.333 411.056 721.923 411.961 718.834 411.961 715.882 411.961 713.599 411.125 711.987 409.452 710.375 407.78 709.569 405.516 709.569 402.661 709.569 399.686 710.438 397.332 712.178 395.599 713.917 393.866 716.323 393 719.394 393Z" fill="#F2F2F2" fill-rule="evenodd"/><path d="M672.624 429.154 672.017 429.4 671.918 429.425ZM574.417 424.994 574.481 425.047 574.487 425.057ZM574.801 423.2C575.069 423.164 575.386 423.226 575.726 423.424 591.374 432.589 610.161 438.001 630.207 438.001L630.291 438.001C643.459 437.933 656.049 435.516 667.693 431.146L672.017 429.4 672.662 429.236C674.328 429.099 675.419 430.965 673.669 432.264L673.669 432.26C661.23 440.862 645.847 446 629.273 446L629.023 446 629.008 446 628.615 446C610.367 446 593.533 439.913 580.006 429.645L574.481 425.047 574.013 424.257C573.928 423.731 574.265 423.271 574.801 423.2ZM683.846 422.529 683.993 422.581 683.846 422.529ZM675.871 421C678.024 421 680.106 421.316 682.07 421.904L683.846 422.529 683.96 423.774C683.986 424.211 684 424.664 684 425.12 684 431.423 681.316 437.098 677.036 441.047L677.022 441.062C676.025 441.895 675.077 441.451 675.518 440.344 676.974 436.68 680.235 428.473 678.687 426.486L678.695 426.489C677.15 424.502 668.484 425.545 664.594 426.012 663.414 426.156 663.234 425.12 664.297 424.365 667.576 422.255 671.58 421 675.871 421Z" fill="#D4A843" fill-rule="evenodd"/><path d="M647.861 341.639 647.855 342.573C647.822 349.734 647.781 356.895 647.723 364.056 645.34 364.975 645.34 364.975 643.104 364.992 641.818 364.992 641.818 364.992 640.556 364.992 639.616 364.992 638.7 365 637.785 365 636.316 364.992 636.316 364.992 634.89 364.983 633.9 364.992 632.943 364.992 631.986 365 630.584 364.992 630.584 364.992 629.215 364.992 626.782 364.992 625.149 365.149 622.98 364.056L622.98 341.658 625.226 342.215C628.474 342.748 631.81 343.026 635.213 343.026L635.506 343.026 635.517 343.026 635.703 343.026C638.794 343.026 641.828 342.792 644.787 342.342ZM672.556 328.793 672.561 328.795 672.556 328.793ZM670.455 324.791C667.255 324.791 664.269 325.707 661.823 327.246 661.031 327.796 661.165 328.552 662.046 328.447 664.221 328.192 668.401 327.7 670.84 328.081L672.556 328.793 672.826 330.608C672.578 333.028 671.006 336.896 670.192 338.9 669.863 339.708 670.57 340.032 671.313 339.424L671.324 339.413C674.516 336.533 676.518 332.394 676.518 327.796 676.518 327.464 676.507 327.134 676.488 326.815L676.403 325.907 676.512 325.944 676.403 325.906 676.403 325.907 675.078 325.451C673.613 325.022 672.061 324.791 670.455 324.791ZM653.96 297C661.036 297 668.484 297.737 674.266 302.331 676.889 305.171 678.555 307.274 679 311.189 678.992 312.199 678.992 313.176 678.984 314.153 678.984 315.867 678.984 317.581 678.967 319.302 678.951 320.519 678.942 321.745 678.934 322.97 678.934 326.182 678.918 329.394 678.893 332.598 678.86 335.926 678.843 339.254 678.835 342.573 678.802 349.734 678.761 356.895 678.703 364.056 676.319 364.975 676.319 364.975 674.084 364.992 672.798 364.992 672.798 364.992 671.536 364.992 670.595 364.992 669.68 365 668.765 365 667.296 364.992 667.296 364.992 665.87 364.983 664.88 364.992 663.923 364.992 662.966 365 661.564 364.992 661.564 364.992 660.195 364.992 657.762 364.992 656.129 365.149 653.96 364.056L653.96 340.154 661.464 337.217C664.037 335.983 666.494 334.573 668.813 333.004L668.813 333.007C670.118 332.06 669.305 330.699 668.062 330.799L667.581 330.918 668.034 330.739 667.508 330.936 667.581 330.918 664.356 332.191C662.185 332.988 659.97 333.696 657.716 334.31L653.96 335.161 653.96 330.277C653.96 319.129 653.96 308.064 653.96 297ZM622.98 297C630.057 297 637.504 297.737 643.286 302.331 645.909 305.171 647.575 307.274 648.02 311.189 648.012 312.199 648.012 313.176 648.004 314.153 648.004 315.867 648.004 317.581 647.987 319.302 647.971 320.519 647.962 321.745 647.954 322.97 647.954 326.182 647.938 329.394 647.913 332.598L647.892 336.27 643.743 336.837C641.346 337.06 638.918 337.179 636.463 337.191L636.4 337.191C632.662 337.191 628.984 336.945 625.386 336.47L622.98 335.993 622.98 330.277C622.98 319.129 622.98 308.064 622.98 297ZM592 297C599.077 297 606.524 297.737 612.306 302.331 614.929 305.171 616.595 307.274 617.04 311.189 617.032 312.199 617.032 313.176 617.024 314.153 617.024 315.867 617.024 317.581 617.007 319.302 616.991 320.519 616.983 321.745 616.974 322.97 616.974 326.182 616.958 329.394 616.933 332.598L616.92 334.792 614.855 334.382C608.024 332.56 601.604 329.902 595.769 326.56 595.516 326.415 595.279 326.37 595.08 326.396 594.68 326.448 594.428 326.783 594.492 327.167L594.841 327.744 594.793 327.704 594.845 327.75 594.841 327.744 598.961 331.097C604.005 334.841 609.666 337.823 615.767 339.87L616.889 340.148 616.875 342.573C616.842 349.734 616.801 356.895 616.743 364.056 614.36 364.975 614.36 364.975 612.125 364.992 610.838 364.992 610.838 364.992 609.576 364.992 608.636 364.992 607.72 365 606.805 365 605.337 364.992 605.337 364.992 603.91 364.983 602.92 364.992 601.963 364.992 601.007 365 599.605 364.992 599.605 364.992 598.235 364.992 595.802 364.992 594.169 365.149 592 364.056 592 341.257 592 319.129 592 297Z" fill="#D4A843" fill-rule="evenodd"/><path d="M729.947 341.42C733.918 342.531 736.93 343.839 739.736 346.85 743.01 351.349 743.182 355.685 742.567 361.114 741.344 364.783 739.276 367.374 736.142 369.571 731.49 372.154 727.518 372.648 722.308 371.192 718.492 369.127 715.694 366.766 713.626 362.866 712.166 358.572 712.289 353.867 714.004 349.696 714.504 349.104 714.997 348.528 715.489 347.952 716.08 347.22 716.654 346.504 717.228 345.797 721.093 342.596 724.95 341.338 729.947 341.42ZM713.849 305.088C712.826 305.086 711.663 305.089 710.334 305.093 709.16 305.101 709.16 305.101 708.02 305.118 705.493 305.134 703.039 305.151 700.586 305.167 700.586 311.041 700.586 316.742 700.586 322.443 710.908 322.443 720.927 322.443 730.946 322.443 730.946 320.798 730.946 320.798 729.805 318.445 729.288 317.474 728.78 316.544 728.279 315.607 726.851 312.917 725.341 310.325 723.725 307.75 721.313 305.397 721.011 305.102 713.849 305.088ZM706.024 300.178C709.69 300.193 713.347 300.3 717.023 300.666 717.885 300.757 717.885 300.757 718.722 300.855 721.028 301.053 723.054 301.365 725.335 301.884 728.987 305.446 728.987 305.446 731.407 310.02 732.047 311.212 732.679 312.405 733.319 313.598 733.795 314.478 733.795 314.478 734.263 315.334 734.542 315.869 734.821 316.387 735.1 316.897 736.626 319.324 737.635 320.599 740.474 321.315 741.279 321.405 742.058 321.496 742.829 321.586 743.699 321.693 744.544 321.792 745.39 321.899 746.292 321.997 747.178 322.096 748.056 322.195 750.584 322.499 753.111 322.795 755.646 323.083 756.221 323.149 756.779 323.207 757.337 323.272 757.337 323.552 757.337 323.824 757.337 324.095 754.826 324.375 752.389 324.646 749.952 324.918 752.413 325.74 752.413 325.74 754.038 325.897 754.653 325.921 755.253 325.946 755.86 325.971 757.205 326.037 758.551 326.094 759.897 326.152 762.358 326.25 766.24 325.617 768.004 327.386 766.428 329.302 766.428 329.302 763.688 329.368 762.088 329.459 762.088 329.459 760.52 329.541 759.429 329.607 758.379 329.673 757.328 329.73 756.491 329.771 755.687 329.812 754.875 329.854 756.418 329.936 757.96 330.018 759.503 330.109 760.143 330.142 760.767 330.174 761.39 330.216 763.606 330.331 765.797 330.479 768.004 330.676 769.079 331.573 769.079 331.573 768.931 333.769 768.931 335.283 768.931 335.283 768.931 336.772 768.931 337.891 768.939 338.977 768.939 340.063 768.931 341.79 768.923 343.518 768.931 345.245 768.931 346.372 768.939 347.491 768.939 348.618 768.931 349.441 768.931 349.441 768.931 350.247 768.931 354.22 768.759 358.029 768.004 361.937 765.165 364.676 762.17 364.726 758.412 364.742 757.731 364.734 757.074 364.726 756.418 364.717 755.728 364.726 755.064 364.734 754.399 364.742 753.415 364.734 753.415 364.734 752.454 364.734 750.723 364.783 750.723 364.783 749.131 364.405 747.104 362.817 746.719 362.233 746.276 359.625 746.079 355.364 746.136 351.695 744.101 347.853 741.295 343.304 738.858 340.194 733.541 338.903 726.853 337.998 721.167 338.261 715.538 342.234 711.025 346.52 709.638 351.259 709.286 357.363 709.351 359.782 709.351 359.782 708.925 361.937 704.904 365.474 704.904 365.474 694.975 364.405 694.975 342.588 694.975 321.413 694.975 300.238 698.684 300.238 702.358 300.162 706.024 300.178ZM672 278.027C678.696 277.764 681.773 279.417 686.803 283.588 690.405 287.709 692.062 291.954 692.103 297.425 692.087 298.099 692.079 298.749 692.062 299.408 692.071 301.645 692.062 303.874 692.038 306.112 692.021 307.708 692.013 309.304 692.005 310.892 691.997 315.071 691.98 319.258 691.939 323.437 691.906 327.772 691.882 332.099 691.865 336.427 691.824 345.755 691.767 355.076 691.693 364.405 690.298 364.405 688.944 364.405 687.59 364.405 687.525 355.989 687.459 347.582 687.377 339.166 687.336 334.872 687.295 330.586 687.262 326.292 687.229 322.096 687.196 317.892 687.155 313.689 687.139 312.093 687.123 310.489 687.106 308.893 687.098 306.589 687.082 304.286 687.057 301.991 687.049 301.267 687.041 300.567 687.032 299.868 687.024 296.619 687.008 293.608 686.031 290.474 683.299 285.184 679.18 283.687 673.83 281.893 673.206 281.696 672.607 281.507 672 281.318 672 280.199 672 279.113 672 278.027Z" fill="#F2F2F2" fill-rule="evenodd"/><path d="M527.361 330C528.675 330.009 529.989 330.009 531.303 330.009 534.05 330 536.788 330 539.535 330.009 543.096 330.009 546.656 330.018 550.217 330.009 552.997 330 555.77 330 558.55 330 559.881 330.009 561.212 330.009 562.552 330.009 569.741 329.991 576.862 329.956 584 331 584 334.244 582.16 336.366 580.075 338.663 571.843 346.686 563.34 347.317 552.514 347.422 551.098 347.431 549.674 347.448 548.25 347.475 546.19 347.519 544.121 347.554 542.053 347.589 538.831 347.624 538.831 347.624 535.678 347.659 535.678 354.516 535.678 361.171 535.678 367.826 532.321 368.694 529.514 368.869 526.089 368.904 525.293 368.913 524.521 368.913 523.758 368.922 522.961 368.939 522.19 368.957 521.418 368.974 520.655 368.983 519.909 368.983 519.172 368.992 516.874 369.018 515.781 369.071 513.966 367.58 513.572 366.791 513.277 366.199 513.056 365.698L513 365.534 513 333.775 513.636 331C516.137 330 516.137 330 518.722 330.009 519.791 330.009 520.833 330.009 521.876 330.009 523.699 330.009 525.53 330 527.361 330Z" fill="#F2F2F2" fill-rule="evenodd"/><path d="M555.995 297C556.696 297 557.382 297.008 558.067 297.008 560.393 297 562.694 297.034 565.019 297.118 571.433 298.583 575.75 301.681 579.952 306.912 583.485 312.143 584.497 317.89 583.787 324.204 582.89 325.322 582.89 325.322 580.629 325.228 579.56 325.254 578.524 325.288 577.479 325.322 575.692 325.372 573.905 325.432 572.118 325.474 571.474 325.491 570.846 325.508 570.225 325.525 562.4 325.745 554.583 325.948 546.766 325.999 545.95 325.999 545.158 325.999 544.367 325.999 536.582 326.041 530.976 325.11 524.22 320.819 518.632 316.292 515.569 310.961 513.616 304.633L513 302.122 513 297.922 529.498 297.234C535.338 297.085 541.18 297.021 547.035 297.017 548.185 297.017 548.185 297.017 549.312 297.017 551.539 297.008 553.767 297 555.995 297Z" fill="#D4A843" fill-rule="evenodd"/><path d="M477.5 381.5 807.666 381.5" stroke="#D4A843" stroke-width="0.666667" stroke-miterlimit="8" fill="none" fill-rule="evenodd"/></g></svg>